<svg width="32" height="36" viewBox="0 0 32 36" fill="none" xmlns="http://www.w3.org/2000/svg">
<path d="M5.91821 27.2294C5.91821 28.1695 6.71425 28.9369 7.69367 28.9369H9.72336V33.7742C9.72336 34.9996 10.7445 36 11.999 36C13.2576 36 14.2745 35.0036 14.2745 33.7742V28.9329H17.8171V33.7702C17.8171 34.9956 18.8382 35.996 20.0927 35.996C21.3514 35.996 22.3683 34.9996 22.3683 33.7702V28.9329H24.398C25.3774 28.9329 26.1735 28.1655 26.1735 27.2254V11.3475H5.91821V27.2294ZM20.8012 3.11932L22.6726 0.50783C22.7809 0.355158 22.7559 0.150256 22.61 0.0498142C22.4642 -0.0466101 22.2558 0.00160229 22.1474 0.154274L20.2053 2.87022C18.9258 2.38409 17.5004 2.1149 16.0042 2.1149C14.5079 2.1149 13.0826 2.38409 11.8031 2.87022L9.8609 0.158292C9.75254 0.00561991 9.54415 -0.0466099 9.39828 0.0538321C9.25241 0.150256 9.2274 0.35114 9.33576 0.511847L11.2071 3.12334C8.23131 4.45721 6.14743 6.98433 5.8807 9.93732H26.136C25.8609 6.98031 23.7728 4.45319 20.8012 3.11932ZM11.728 7.23744C11.5063 7.23744 11.2896 7.17406 11.1052 7.0553C10.9208 6.93655 10.7771 6.76775 10.6923 6.57027C10.6074 6.37279 10.5852 6.15549 10.6285 5.94584C10.6717 5.73619 10.7785 5.54362 10.9353 5.39248C11.0921 5.24133 11.2919 5.1384 11.5093 5.0967C11.7268 5.055 11.9522 5.0764 12.1571 5.1582C12.3619 5.24 12.537 5.37852 12.6602 5.55625C12.7834 5.73398 12.8492 5.94293 12.8492 6.15668C12.8484 6.44309 12.73 6.71755 12.52 6.92007C12.3099 7.12259 12.0252 7.2367 11.728 7.23744ZM20.4136 7.23744C20.1919 7.23744 19.9751 7.17406 19.7908 7.0553C19.6064 6.93655 19.4627 6.76775 19.3779 6.57027C19.293 6.37279 19.2708 6.15549 19.3141 5.94584C19.3573 5.73619 19.4641 5.54362 19.6209 5.39248C19.7777 5.24133 19.9774 5.1384 20.1949 5.0967C20.4124 5.055 20.6378 5.0764 20.8427 5.1582C21.0475 5.24 21.2226 5.37852 21.3458 5.55625C21.469 5.73398 21.5348 5.94293 21.5348 6.15668C21.534 6.44309 21.4156 6.71755 21.2055 6.92007C20.9955 7.12259 20.7107 7.2367 20.4136 7.23744ZM29.7244 11.2832C28.4657 11.2832 27.4488 12.2796 27.4488 13.509V22.2033C27.4488 23.4287 28.4699 24.4291 29.7244 24.4291C30.9831 24.4291 32 23.4327 32 22.2033V13.505C32.0042 12.2756 30.9872 11.2832 29.7244 11.2832ZM2.27559 11.2832C1.01693 11.2832 0 12.2796 0 13.509V22.2033C0 23.4287 1.0211 24.4291 2.27559 24.4291C3.53425 24.4291 4.55118 23.4327 4.55118 22.2033V13.505C4.55118 12.2756 3.53008 11.2832 2.27559 11.2832Z" fill="white"/>
</svg>
